<svg
  xmlns="http://www.w3.org/2000/svg"
  viewBox="300 470 800 100"
  class="logo"
  height="300"
  width="500"
>
  <g transform="matrix(1.3333333,0,0,-1.3333333,0,1066.6667)">
    <g transform="scale(0.1)">
      <path
        style="fill:#343a40;fill-opacity:1;fill-rule:nonzero;stroke:none"
        d="m 3407.75,4389.78 c 241.8,156.45 373.06,364.53 625,435 276.35,-4.53 530.24,434.92 778.72,617.29 40.86,29.99 97.57,25.42 132.56,-11.24 361.66,-378.88 1338.75,-1244.27 1338.75,-1244.27 l -462.32,492.8 c 183.73,115.49 178.87,262.43 292.29,230.42 113.42,-32.02 284.2,-184.21 370,-265 419.69,-395.2 735.95,-765.82 1145.51,-1107.1 l -999.01,564.46 c -66.75,37.72 -151.13,2.27 -170.92,-71.8 l -24.07,-90.07 c -10.9,-40.77 -57.71,-60.12 -94.03,-38.64 -299.07,176.9 -589.52,399.24 -890.09,568.17 -107.16,60.23 -234.32,122.01 -347.49,74.03 -65.23,-27.66 -115.03,-89.02 -184.52,-102.85 -87.89,-17.49 -168.6,46.06 -252.28,78.13 -142.43,54.58 -153.1,225.67 -843.07,-183.64 -128.06,-75.97 -330.99,-106.42 -460.03,-180.69 -257.1,-147.99 -860,-505 -860,-505 0,0 650,575 905,740"
      />
      <path
        style="fill:#343a40;fill-opacity:1;fill-rule:nonzero;stroke:none"
        d="M 4048.61,3996.31 C 4618.93,3957.5 5103.84,3615.88 5635.31,3420.15 6199.66,3212.3 6837.4,3170.44 7420.05,3303 6956.57,3083.38 6397.25,3017.27 5873.9,3120.26 5276.77,3237.76 4752.59,3588.3 4156.08,3708.53 3543.52,3832 2879.9,3696.2 2371.74,3391.09 c 707.68,606.27 1304.21,630.58 1676.87,605.22"
      />
      <path
        style="fill:#343a40;fill-opacity:1;fill-rule:nonzero;stroke:none"
        d="m 3761.85,3619.01 c 562.54,-101.63 1006.7,-494.77 1513.27,-748.07 479.54,-239.79 1031.63,-354.78 1566.48,-329.24 -439.61,20.78 -879.75,133.37 -1271.48,329.24 -506.57,253.3 -950.73,646.44 -1513.27,748.07 -147.46,26.65 -331.64,49.29 -549.05,33.05 93.93,-6.89 178.78,-19.45 254.05,-33.05"
      />
    </g>
  </g>
</svg>
